Coordinates
version=1
nRows=16
nColumns=36
inDegrees=yes

Units are S.I. units (second, meters, Newtons, ...)
If the header above contains a line with 'inDegrees', this indicates whether rotational values are in degrees (yes) or radians (no).

endheader
time	pelvis_tilt	pelvis_list	pelvis_rotation	pelvis_tx	pelvis_ty	pelvis_tz	hip_flexion_r	hip_adduction_r	hip_rotation_r	knee_angle_r	knee_angle_r_beta	ankle_angle_r	subtalar_angle_r	mtp_angle_r	hip_flexion_l	hip_adduction_l	hip_rotation_l	knee_angle_l	knee_angle_l_beta	ankle_angle_l	subtalar_angle_l	mtp_angle_l	lumbar_extension	lumbar_bending	lumbar_rotation	arm_flex_r	arm_add_r	arm_rot_r	elbow_flex_r	pro_sup_r	arm_flex_l	arm_add_l	arm_rot_l	elbow_flex_l	pro_sup_l
      6.00000000	    -18.19876691	      0.17258507	     -6.24868643	     -0.31725041	      1.10548188	     -0.59055612	     40.33915564	     -5.96297651	      2.05292663	     25.16164917	      0.43915362	      3.70392551	     -0.62512572	     -7.49999987	     37.44924346	    -15.02775180	    -13.62515520	     27.63711227	      0.48235860	      7.04921670	      6.17678398	     -7.49999987	    -21.43203914	     -2.84970187	     11.50076900	     46.39645082	    -16.59458082	     19.09275161	     98.58747675	     94.95996281	     57.84580565	     -8.29563617	     38.08937635	     88.28283276	     97.66969803
      6.01000000	    -17.10455365	      0.23082728	     -6.15929182	     -0.31018926	      1.11096939	     -0.59040952	     38.19308067	     -6.19134669	      1.97571142	     24.03796475	      0.41954163	      3.50158172	     -0.36288709	     -7.49999987	     35.14006042	    -14.49782881	    -13.66261085	     26.14842732	      0.45637615	      6.54856763	      5.99606539	     -7.49999987	    -20.97459374	     -2.77946633	     11.45590627	     43.75923671	    -16.27359301	     18.89291095	     99.17603187	     95.00651000	     55.40344836	     -8.63353730	     38.08057600	     88.95964023	     97.79473220
      6.02000000	    -16.04353815	      0.26147155	     -6.03078529	     -0.30314448	      1.11620797	     -0.59028560	     36.05406153	     -6.41041014	      1.84347567	     22.87964432	      0.39932513	      3.25615842	     -0.10705070	     -7.49999987	     32.89437414	    -13.97599976	    -13.59812703	     24.67506430	      0.43066112	      6.02737862	      5.83704061	     -7.49999987	    -20.51117459	     -2.67760136	     11.39665488	     41.15279206	    -15.97583113	     18.68625382	     99.79623211	     95.05513598	     52.97069131	     -8.94257457	     38.04805288	     89.59417369	     97.93064701
      6.03000000	    -14.98321023	      0.28797998	     -5.93017392	     -0.29625132	      1.12120361	     -0.59017118	     33.93121422	     -6.60559645	      1.71880545	     21.72981254	      0.37925677	      2.99403412	      0.13151496	     -7.49999987	     30.64698696	    -13.46352745	    -13.50150889	     23.17341932	      0.40445247	      5.47846914	      5.56844918	     -7.49999987	    -20.07306424	     -2.55260351	     11.37029109	     38.65422833	    -15.71150138	     18.52863020	    100.34826851	     95.11013150	     50.59429975	     -9.26345262	     38.00435252	     90.19175893	     98.09044730
      6.04000000	    -13.98521610	      0.29390045	     -5.86777794	     -0.28953948	      1.12581763	     -0.58999982	     31.91180560	     -6.74927386	      1.62733527	     20.61392499	      0.35978086	      2.69329170	      0.39015266	     -7.49999987	     28.48616653	    -13.02110748	    -13.42972584	     21.72530535	      0.37917811	      5.01209477	      5.41531068	     -7.49999987	    -19.58007695	     -2.46592907	     11.30428308	     36.23214415	    -15.31795642	     18.29339745	    100.85851504	     95.18243951	     48.21429195	     -9.56194901	     37.91892357	     90.84240715	     98.23752047
      6.05000000	    -12.97764112	      0.26762200	     -5.84632958	     -0.28278301	      1.13015800	     -0.58969997	     29.88561514	     -6.84390973	      1.49872710	     19.52242770	      0.34073064	      2.43474151	      0.63792519	     -7.49999987	     26.31832374	    -12.65515401	    -13.43477586	     20.31711324	      0.35460052	      4.56339528	      5.31422153	     -7.49999987	    -19.06877249	     -2.39139191	     11.21916077	     33.85199962	    -14.94001112	     18.10701904	    101.26215372	     95.29200978	     45.85155740	     -9.95544085	     37.75877037	     91.49135884	     98.38323779
      6.06000000	    -11.94058772	      0.22804624	     -5.79082718	     -0.27603370	      1.13429356	     -0.58937458	     27.81724896	     -6.93654104	      1.33653562	     18.42378596	      0.32155573	      2.21916358	      0.83635985	     -7.49999987	     24.14578944	    -12.30669761	    -13.46289544	     18.93887410	      0.33054571	      4.11177761	      5.26436309	     -7.49999987	    -18.63739431	     -2.25066137	     11.10736963	     31.60629249	    -14.59744090	     18.10158848	    101.64516199	     95.45289469	     43.48383603	    -10.34711019	     37.50692047	     92.18134732	     98.54085004
      6.07000000	    -10.94218891	      0.21929296	     -5.72514430	     -0.26933627	      1.13813400	     -0.58909775	     25.79448634	     -7.05700987	      1.19125726	     17.32628356	      0.30240070	      2.03287887	      1.02427935	     -7.49999987	     22.02550809	    -11.93292526	    -13.47041494	     17.56687713	      0.30659985	      3.69250462	      5.27683910	     -7.49999987	    -18.21611708	     -2.07141505	     10.98339616	     29.44075161	    -14.28012542	     18.15752499	    102.06643670	     95.60844511	     41.10722972	    -10.72112228	     37.15812281	     92.93437954	     98.67940377
      6.08000000	     -9.90005652	      0.20518662	     -5.67895622	     -0.26269350	      1.14175260	     -0.58879862	     23.75279513	     -7.18697832	      0.94426870	     16.26587523	      0.28389308	      1.95273051	      1.31015054	     -7.49999987	     19.84889614	    -11.56811622	    -13.48469756	     16.16558283	      0.28214265	      3.24797501	      5.20893990	     -7.49999987	    -17.85431768	     -1.91761123	     10.75678631	     27.46449569	    -13.92963313	     18.41636289	    102.28488740	     95.79828144	     38.69401678	    -11.16807065	     36.68742360	     93.79922922	     98.84147332
      6.09000000	     -8.97589014	      0.15078479	     -5.59662173	     -0.25613369	      1.14493225	     -0.58850526	     21.84638530	     -7.28561455	      0.57326229	     15.24292804	      0.26603928	      1.89801347	      1.68404644	     -7.49999987	     17.87430117	    -11.28860345	    -13.49389146	     14.90099926	      0.26007150	      2.92399572	      5.36270293	     -7.49999987	    -17.37012361	     -1.77038884	     10.51112741	     25.39601436	    -13.53383661	     18.51306674	    102.54942946	     95.91606573	     36.29022013	    -11.54718299	     36.18663179	     94.66178477	     98.96541756
      6.10000000	     -7.97063269	      0.03321532	     -5.47748276	     -0.24954563	      1.14796445	     -0.58826355	     19.83329633	     -7.35302282	      0.03042308	     14.21886828	      0.24816607	      1.95864753	      2.30644299	     -7.49999987	     15.83423964	    -11.07482858	    -13.50875222	     13.66052298	      0.23842110	      2.63489577	      5.51611823	     -7.49999987	    -16.98757599	     -1.55174045	     10.04724676	     23.64907622	    -13.21694166	     19.06852681	    102.57337766	     96.09772093	     33.82411318	    -12.02763552	     35.50710616	     95.62772499	     99.16171018
      6.11000000	     -7.05895102	     -0.06497562	     -5.33162224	     -0.24311202	      1.15062334	     -0.58809361	     17.93102739	     -7.41714899	     -0.45856958	     13.20755579	      0.23051533	      1.90408081	      2.78621439	     -7.49999987	     13.95851157	    -10.86446015	    -13.50851659	     12.52505223	      0.21860340	      2.43560320	      5.72168276	     -7.49999987	    -16.54178857	     -1.34961435	      9.75291620	     21.77549329	    -12.98254232	     19.27271980	    102.86600579	     96.24694068	     31.46385378	    -12.29355262	     34.83286946	     96.44500659	     99.34500262
      6.12000000	     -6.12299933	     -0.12739851	     -5.21226127	     -0.23679007	      1.15303837	     -0.58802341	     16.07314546	     -7.53883267	     -1.09690035	     12.29663003	      0.21461668	      2.06180864	      3.65974020	     -7.49999987	     12.06763909	    -10.62335946	    -13.51180754	     11.41616674	      0.19924970	      2.22242604	      5.86900142	     -7.49999987	    -16.13941908	     -1.16784817	      9.15419917	     20.33899239	    -12.68343506	     19.95451172	    102.78626149	     96.59071657	     28.90684896	    -12.73214896	     33.86011666	     97.47259049	     99.83998977
      6.13000000	     -5.56759222	     -0.18281452	     -5.10535146	     -0.23088499	      1.15465586	     -0.58789132	     14.68075574	     -7.58191463	     -1.46615336	     11.45275701	      0.19988832	      2.03785917	      3.91764296	     -7.49999987	     10.71605243	    -10.46650381	    -13.68948929	     10.51418009	      0.18350706	      2.17521554	      6.06890041	     -7.49999987	    -15.32959620	     -1.02570676	      9.06185914	     18.45121958	    -12.57233055	     20.02846928	    103.12405655	     96.64718574	     26.89647395	    -12.93698151	     33.82339222	     97.92044765	     99.91221689
      6.14000000	     -4.28397676	     -0.27244475	     -5.03032140	     -0.22477769	      1.15707479	     -0.58771672	     12.46463460	     -7.66882493	     -2.00572546	     10.51419180	      0.18350727	      2.02653064	      4.71961000	     -7.49999987	      8.44798404	    -10.27731282	    -13.90337562	      9.39854379	      0.16403553	      1.91655654	      6.57878310	     -7.49999987	    -15.44827976	     -0.88675317	      8.77590769	     16.91816576	    -12.38662846	     20.24281288	    103.45625996	     96.74547962	     24.77241813	    -13.04962565	     33.24336546	     98.65252393	     99.91434625
      6.15000000	     -3.66307167	     -0.36842268	     -4.98231187	     -0.21927966	      1.15831070	     -0.58731498	     11.08652311	     -7.62474195	     -2.17659780	      9.77994494	      0.17069224	      2.05921909	      5.07280898	     -7.49999987	      7.02398779	    -10.20514749	    -13.98428342	      8.49707086	      0.14830186	      1.74575586	      6.90473801	     -7.49999987	    -14.88733857	     -0.73274982	      8.66475545	     15.26725183	    -12.28569882	     20.48689813	    103.94208579	     96.84204311	     22.70196389	    -13.14082071	     32.91815878	     99.37594993	    100.20730558
